<mxfile host="Electron" modified="2024-11-11T15:56:54.878Z" agent="Mozilla/5.0 (Macintosh; Intel Mac OS X 10_15_7) AppleWebKit/537.36 (KHTML, like Gecko) draw.io/23.0.2 Chrome/120.0.6099.109 Electron/28.1.0 Safari/537.36" etag="Hzj5rrHg00YhDSCfIkwJ" version="23.0.2" type="device">
  <diagram name="Page-1" id="XD1-e_rAunUQ8mGmSZGq">
    <mxGraphModel dx="954" dy="633" grid="1" gridSize="10" guides="1" tooltips="1" connect="1" arrows="1" fold="1" page="1" pageScale="1" pageWidth="3000" pageHeight="3000" math="0" shadow="0">
      <root>
        <mxCell id="0" />
        <mxCell id="1" parent="0" />
        <mxCell id="559ESSCcv_TPfDUD18e_-1" value="&lt;p style=&quot;margin: 0cm; font-size: 12pt; font-family: Calibri, sans-serif; text-align: start; line-height: 170%;&quot; class=&quot;MsoNormal&quot;&gt;&lt;b&gt;Cointelegraph News Headlines:&lt;/b&gt;&lt;/p&gt;&lt;p style=&quot;margin: 0cm; font-size: 12pt; font-family: Calibri, sans-serif; text-align: start; line-height: 170%;&quot; class=&quot;MsoNormal&quot;&gt;&lt;i&gt;Crypto markets ‘lackadaisical’ as institutional buying slows.&lt;/i&gt;&lt;/p&gt;&lt;p style=&quot;margin: 0cm; font-size: 12pt; font-family: Calibri, sans-serif; text-align: start; line-height: 170%;&quot; class=&quot;MsoNormal&quot;&gt;&amp;nbsp;&amp;nbsp;&amp;nbsp;&amp;nbsp;&amp;nbsp;&amp;nbsp;&amp;nbsp;&amp;nbsp;&amp;nbsp;&amp;nbsp;&amp;nbsp;&amp;nbsp; ...&lt;/p&gt;&lt;p style=&quot;margin: 0cm; font-size: 12pt; font-family: Calibri, sans-serif; text-align: start; line-height: 170%;&quot; class=&quot;MsoNormal&quot;&gt;&lt;i&gt;Investment bank TD Cowen shuts crypto unit a year after opening.&lt;/i&gt;&lt;/p&gt;" style="rounded=1;whiteSpace=wrap;html=1;strokeWidth=2;" vertex="1" parent="1">
          <mxGeometry x="430" y="300" width="250" height="200" as="geometry" />
        </mxCell>
      </root>
    </mxGraphModel>
  </diagram>
</mxfile>
